<svg width="22" height="22" viewBox="0 0 22 22" fill="none" xmlns="http://www.w3.org/2000/svg">
<path d="M2.52717 18.8693C2.39183 18.8226 2.27441 18.7349 2.19129 18.6184C2.10818 18.5019 2.06352 18.3623 2.06354 18.2191C2.06354 15.0781 2.69432 12.5662 3.93912 10.7525C5.44303 8.56105 7.81533 7.38113 11.001 7.23461V3.78164C11.001 3.64702 11.0406 3.51536 11.1147 3.40301C11.1889 3.29065 11.2944 3.20254 11.4182 3.14959C11.5419 3.09665 11.6785 3.08121 11.811 3.10519C11.9435 3.12917 12.066 3.19152 12.1633 3.28449L19.7258 10.5032C19.793 10.5674 19.8465 10.6446 19.8831 10.73C19.9196 10.8155 19.9385 10.9075 19.9385 11.0004C19.9385 11.0933 19.9196 11.1853 19.8831 11.2707C19.8465 11.3562 19.793 11.4333 19.7258 11.4975L12.1633 18.7163C12.066 18.8093 11.9435 18.8716 11.811 18.8956C11.6785 18.9196 11.5419 18.9041 11.4182 18.8512C11.2944 18.7982 11.1889 18.7101 11.1147 18.5978C11.0406 18.4854 11.001 18.3538 11.001 18.2191V14.7915C9.06744 14.85 7.6065 15.1632 6.44334 15.7643C5.1865 16.414 4.27514 17.3847 3.29287 18.6432C3.20475 18.7561 3.08361 18.8386 2.94634 18.8793C2.80907 18.9199 2.66253 18.9167 2.52717 18.8701V18.8693Z" fill="#709775"></path>
</svg>
