<svg width="23" height="22" viewBox="0 0 23 22" fill="none" xmlns="http://www.w3.org/2000/svg">
<path d="M15.6071 2.98C16.6923 2.98317 17.7322 3.40675 18.4995 4.15821C19.2669 4.90968 19.6994 5.92797 19.7026 6.9907V15.0113C19.6994 16.074 19.2669 17.0923 18.4995 17.8437C17.7322 18.5952 16.6923 19.0188 15.6071 19.022H7.41702C6.33183 19.0188 5.29201 18.5952 4.52465 17.8437C3.7573 17.0923 3.32477 16.074 3.32153 15.0113V6.9907C3.32477 5.92797 3.7573 4.90968 4.52465 4.15821C5.29201 3.40675 6.33183 2.98317 7.41702 2.98H15.6071V2.98ZM15.6071 1.37598H7.41702C4.26357 1.37598 1.68359 3.90254 1.68359 6.9907V15.0113C1.68359 18.0994 4.26357 20.626 7.41702 20.626H15.6071C18.7606 20.626 21.3406 18.0994 21.3406 15.0113V6.9907C21.3406 3.90254 18.7606 1.37598 15.6071 1.37598V1.37598Z" fill="#709775"></path>
<path d="M16.8388 6.99761C16.5951 6.99761 16.3569 6.92685 16.1543 6.79427C15.9516 6.66169 15.7937 6.47325 15.7005 6.25278C15.6072 6.03231 15.5828 5.78971 15.6304 5.55565C15.6779 5.3216 15.7952 5.10661 15.9676 4.93787C16.1399 4.76913 16.3594 4.65421 16.5984 4.60766C16.8374 4.5611 17.0851 4.585 17.3103 4.67632C17.5354 4.76764 17.7278 4.92229 17.8632 5.12071C17.9986 5.31913 18.0708 5.55241 18.0708 5.79104C18.0712 5.94959 18.0396 6.10664 17.9778 6.25318C17.916 6.39972 17.8252 6.53287 17.7108 6.64498C17.5963 6.75709 17.4603 6.84595 17.3107 6.90646C17.161 6.96698 17.0007 6.99796 16.8388 6.99761V6.99761Z" fill="#709775"></path>
<path d="M11.5119 7.79104C12.1599 7.79104 12.7933 7.97921 13.3321 8.33176C13.8709 8.68431 14.2908 9.18541 14.5388 9.77168C14.7868 10.358 14.8517 11.0031 14.7253 11.6255C14.5988 12.2478 14.2868 12.8195 13.8286 13.2682C13.3704 13.717 12.7866 14.0225 12.1511 14.1463C11.5155 14.2701 10.8568 14.2066 10.2581 13.9638C9.65945 13.7209 9.14776 13.3097 8.78775 12.782C8.42775 12.2544 8.23559 11.6341 8.23559 10.9995C8.23652 10.1488 8.582 9.33329 9.19623 8.73178C9.81045 8.13027 10.6433 7.79195 11.5119 7.79104V7.79104ZM11.5119 6.18701C10.54 6.18701 9.58984 6.46926 8.78169 6.99806C7.97355 7.52687 7.34368 8.27848 6.97173 9.15785C6.59979 10.0372 6.50247 11.0049 6.69208 11.9384C6.8817 12.8719 7.34974 13.7294 8.03701 14.4025C8.72428 15.0755 9.59991 15.5338 10.5532 15.7195C11.5065 15.9052 12.4945 15.8099 13.3925 15.4457C14.2905 15.0814 15.058 14.4646 15.5979 13.6732C16.1379 12.8818 16.4261 11.9513 16.4261 10.9995C16.4261 9.72316 15.9084 8.49908 14.9868 7.59656C14.0652 6.69404 12.8152 6.18701 11.5119 6.18701V6.18701Z" fill="#709775"></path>
</svg>
